<svg width="17" height="15" viewBox="0 0 17 15" fill="none" xmlns="http://www.w3.org/2000/svg">
<path d="M7.61459 9.40364C7.61459 7.44 7.00368 5.63636 5.78187 3.99273C4.5455 2.33454 2.97459 1.00363 1.06914 0L4.95911e-05 1.35273C0.974595 2.13818 1.83278 3.01091 2.57459 3.97091C3.30187 4.93091 3.6655 5.89091 3.6655 6.85091C3.6655 7.38909 3.56369 7.75273 3.36005 7.94182C3.14187 8.13091 2.8655 8.32 2.53096 8.50909C2.12369 8.75636 1.73823 9.11273 1.3746 9.57818C1.01096 10.0291 0.82914 10.6182 0.82914 11.3455C0.82914 12.2036 1.11277 12.9309 1.68005 13.5273C2.24732 14.1091 2.98187 14.4 3.88369 14.4C4.87278 14.4 5.7455 13.9855 6.50187 13.1564C7.24368 12.3273 7.61459 11.0764 7.61459 9.40364ZM16.8 9.40364C16.8 7.44 16.1891 5.63636 14.9673 3.99273C13.731 2.33454 12.16 1.00363 10.2546 0L9.1855 1.35273C10.16 2.13818 11.0182 3.01091 11.76 3.97091C12.4873 4.93091 12.851 5.89091 12.851 6.85091C12.851 7.38909 12.7491 7.75273 12.5455 7.94182C12.3273 8.13091 12.051 8.32 11.7164 8.50909C11.3091 8.75636 10.9237 9.11273 10.56 9.57818C10.1964 10.0291 10.0146 10.6182 10.0146 11.3455C10.0146 12.2036 10.2982 12.9309 10.8655 13.5273C11.4328 14.1091 12.1673 14.4 13.0691 14.4C14.0582 14.4 14.931 13.9855 15.6873 13.1564C16.4291 12.3273 16.8 11.0764 16.8 9.40364Z" fill="#6FB587"/>
</svg>
