<svg width="17" height="15" viewBox="0 0 17 15" fill="none" xmlns="http://www.w3.org/2000/svg">
<path d="M9.18545 9.40364C9.18545 7.44 9.79636 5.63636 11.0182 3.99273C12.2545 2.33454 13.8255 1.00363 15.7309 0L16.8 1.35273C15.8255 2.13818 14.9673 3.01091 14.2255 3.97091C13.4982 4.93091 13.1345 5.89091 13.1345 6.85091C13.1345 7.38909 13.2364 7.75273 13.44 7.94182C13.6582 8.13091 13.9345 8.32 14.2691 8.50909C14.6764 8.75636 15.0618 9.11273 15.4255 9.57818C15.7891 10.0291 15.9709 10.6182 15.9709 11.3455C15.9709 12.2036 15.6873 12.9309 15.12 13.5273C14.5527 14.1091 13.8182 14.4 12.9164 14.4C11.9273 14.4 11.0545 13.9855 10.2982 13.1564C9.55636 12.3273 9.18545 11.0764 9.18545 9.40364ZM0 9.40364C0 7.44 0.610909 5.63636 1.83273 3.99273C3.06909 2.33454 4.64 1.00363 6.54545 0L7.61455 1.35273C6.64 2.13818 5.78182 3.01091 5.04 3.97091C4.31273 4.93091 3.94909 5.89091 3.94909 6.85091C3.94909 7.38909 4.05091 7.75273 4.25455 7.94182C4.47273 8.13091 4.74909 8.32 5.08364 8.50909C5.49091 8.75636 5.87636 9.11273 6.24 9.57818C6.60364 10.0291 6.78545 10.6182 6.78545 11.3455C6.78545 12.2036 6.50182 12.9309 5.93455 13.5273C5.36727 14.1091 4.63273 14.4 3.73091 14.4C2.74182 14.4 1.86909 13.9855 1.11273 13.1564C0.370909 12.3273 0 11.0764 0 9.40364Z" fill="#6FB587"/>
</svg>
