<svg width="13" height="13" viewBox="0 0 13 13" fill="none" xmlns="http://www.w3.org/2000/svg">
<g clip-path="url(#clip0_34_568)">
<path d="M12.9878 3.77417C12.9577 3.09208 12.8474 2.62315 12.6894 2.21681C12.5264 1.7855 12.2756 1.39935 11.9471 1.07833C11.6261 0.752326 11.2374 0.499003 10.811 0.338547C10.4024 0.180539 9.93587 0.0702366 9.25378 0.0401632C8.5666 0.00754284 8.34844 0 6.60556 0C4.86267 0 4.64452 0.00754284 3.95988 0.0376163C3.27779 0.0676897 2.80886 0.17809 2.40263 0.336C1.97121 0.499004 1.58506 0.749779 1.26405 1.07833C0.93804 1.39935 0.684816 1.78805 0.524261 2.21436C0.366253 2.62315 0.255951 3.08953 0.225878 3.77162C0.193258 4.4588 0.185715 4.67696 0.185715 6.41985C0.185715 8.16273 0.193258 8.38089 0.223331 9.06552C0.253404 9.74761 0.363804 10.2165 0.521812 10.6229C0.684816 11.0542 0.93804 11.4403 1.26405 11.7614C1.58506 12.0874 1.97376 12.3407 2.40008 12.5011C2.80886 12.6592 3.27524 12.7695 3.95743 12.7995C4.64197 12.8297 4.86022 12.8371 6.60311 12.8371C8.346 12.8371 8.56415 12.8297 9.24879 12.7995C9.93087 12.7695 10.3998 12.6592 10.806 12.5011C11.6688 12.1676 12.3509 11.4855 12.6844 10.6229C12.8423 10.2141 12.9527 9.74761 12.9828 9.06552C13.0129 8.38089 13.0204 8.16273 13.0204 6.41985C13.0204 4.67696 13.0179 4.4588 12.9878 3.77417ZM11.8318 9.01537C11.8041 9.64231 11.6988 9.98085 11.6111 10.2066C11.3954 10.7658 10.9515 11.2097 10.3923 11.4254C10.1666 11.5131 9.82557 11.6184 9.20108 11.646C8.52399 11.6761 8.32092 11.6836 6.6081 11.6836C4.89529 11.6836 4.68967 11.6761 4.01503 11.646C3.38809 11.6184 3.04955 11.5131 2.82385 11.4254C2.54555 11.3225 2.29223 11.1595 2.08661 10.9463C1.87345 10.7382 1.71045 10.4874 1.60759 10.2091C1.51982 9.9834 1.41451 9.64231 1.38699 9.01792C1.35681 8.34082 1.34937 8.13766 1.34937 6.42484C1.34937 4.71203 1.35681 4.50641 1.38699 3.83186C1.41451 3.20493 1.51982 2.86638 1.60759 2.64068C1.71045 2.36228 1.87345 2.10906 2.08916 1.90334C2.29722 1.69019 2.548 1.52718 2.8264 1.42442C3.05209 1.33665 3.39319 1.23135 4.01758 1.20372C4.69467 1.17365 4.89784 1.1661 6.61055 1.1661C8.32591 1.1661 8.52898 1.17365 9.20363 1.20372C9.83056 1.23135 10.1691 1.33665 10.3948 1.42442C10.6731 1.52718 10.9264 1.69019 11.132 1.90334C11.3452 2.11151 11.5082 2.36228 11.6111 2.64068C11.6988 2.86638 11.8041 3.20738 11.8318 3.83186C11.8618 4.50896 11.8694 4.71203 11.8694 6.42484C11.8694 8.13766 11.8618 8.33828 11.8318 9.01537Z" fill="#402F2C"/>
<path d="M6.60513 3.12207C4.78456 3.12207 3.30743 4.5991 3.30743 6.41976C3.30743 8.24043 4.78456 9.71746 6.60513 9.71746C8.42579 9.71746 9.90282 8.24043 9.90282 6.41976C9.90282 4.5991 8.42579 3.12207 6.60513 3.12207ZM6.60513 8.5589C5.42403 8.5589 4.466 7.60095 4.466 6.41976C4.466 5.23857 5.42403 4.28063 6.60513 4.28063C7.78632 4.28063 8.74426 5.23857 8.74426 6.41976C8.74426 7.60095 7.78632 8.5589 6.60513 8.5589Z" fill="#402F2C"/>
<path d="M10.8032 2.99178C10.8032 3.41693 10.4584 3.76165 10.0332 3.76165C9.60805 3.76165 9.26334 3.41693 9.26334 2.99178C9.26334 2.56654 9.60805 2.22192 10.0332 2.22192C10.4584 2.22192 10.8032 2.56654 10.8032 2.99178Z" fill="#402F2C"/>
</g>
<defs>
<clipPath id="clip0_34_568">
<rect width="12.8372" height="12.8372" fill="white" transform="translate(0.162689)"/>
</clipPath>
</defs>
</svg>
