<svg width="14" height="13" viewBox="0 0 14 13" fill="none" xmlns="http://www.w3.org/2000/svg">
<g clip-path="url(#clip0_34_564)">
<path d="M13.4186 2.43815C12.9412 2.64755 12.4325 2.78635 11.9022 2.85375C12.4478 2.52801 12.8642 2.01612 13.0599 1.39914C12.5513 1.70241 11.9896 1.91664 11.3911 2.03618C10.9081 1.52189 10.2197 1.20337 9.46873 1.20337C8.01171 1.20337 6.83871 2.38599 6.83871 3.83579C6.83871 4.0444 6.85637 4.24498 6.89969 4.43593C4.71175 4.32922 2.77575 3.28059 1.47518 1.68316C1.24812 2.0771 1.11494 2.52801 1.11494 3.01341C1.11494 3.92485 1.5843 4.73279 2.28392 5.20055C1.8611 5.19252 1.4463 5.06977 1.09488 4.87641C1.09488 4.88443 1.09488 4.89486 1.09488 4.90529C1.09488 6.1842 2.00712 7.24647 3.20338 7.49118C2.98916 7.54975 2.75569 7.57783 2.51339 7.57783C2.3449 7.57783 2.17481 7.56821 2.01514 7.5329C2.35613 8.57512 3.32373 9.34134 4.47427 9.36621C3.57887 10.0666 2.44198 10.4887 1.21121 10.4887C0.99539 10.4887 0.78839 10.479 0.58139 10.4526C1.74717 11.2043 3.12877 11.6336 4.61868 11.6336C9.46151 11.6336 12.1092 7.62196 12.1092 4.14469C12.1092 4.02835 12.1052 3.91603 12.0996 3.8045C12.6219 3.43383 13.0607 2.97089 13.4186 2.43815Z" fill="#402F2C"/>
</g>
<defs>
<clipPath id="clip0_34_564">
<rect width="12.8372" height="12.8372" fill="white" transform="translate(0.58139)"/>
</clipPath>
</defs>
</svg>
